<svg width="199" height="55" viewBox="0 0 199 55" fill="none" xmlns="http://www.w3.org/2000/svg">
<g clip-path="url(#clip0_110_3962)">
<path d="M44.8343 8.39844C42.0532 8.39795 39.331 9.19931 36.9942 10.7064C34.6574 12.2135 32.8054 14.3623 31.6602 16.8951L33.3446 19.7492C34.0632 17.0805 35.6898 14.7455 37.9447 13.1457C40.1996 11.5458 42.9419 10.7812 45.6998 10.9832C48.4578 11.1853 51.0592 12.3414 53.0565 14.2527C55.0539 16.1641 56.3224 18.7112 56.644 21.4561H44.2273V24.0046H59.2411C59.2741 23.619 59.2929 23.2287 59.2929 22.8338C59.2923 20.9371 58.9178 19.0591 58.1908 17.3071C57.4638 15.5551 56.3985 13.9633 55.0558 12.6228C53.7132 11.2823 52.1194 10.2193 50.3656 9.49447C48.6117 8.76964 46.7322 8.39721 44.8343 8.39844Z" fill="#4D817D"/>
<path d="M44.8344 34.7252C42.5166 34.7263 40.2491 34.0498 38.3112 32.779C36.3733 31.5083 34.8497 29.6987 33.9281 27.5734L33.5188 26.8587L30.4511 21.4842L30.1123 20.887L26.8188 15.3668C25.5706 13.2998 23.8235 11.5788 21.7374 10.3613C19.6513 9.14386 17.2929 8.4689 14.8782 8.39826C12.4635 8.32761 10.0696 8.86353 7.91581 9.95695C5.76202 11.0504 3.91714 12.6663 2.55014 14.6568V0.470703H0V23.4544C0.131891 26.7068 1.35985 29.8192 3.48455 32.2863C5.60926 34.7535 8.50597 36.4306 11.7045 37.0454C14.903 37.6602 18.2156 37.1766 21.1044 35.6731C23.9933 34.1696 26.2889 31.7345 27.6186 28.763L25.9719 25.8054C25.3064 28.3766 23.7989 30.6511 21.6895 32.2664C19.5802 33.8818 16.9905 34.745 14.3331 34.7185C11.6758 34.692 9.10388 33.7773 7.02722 32.1202C4.95057 30.4631 3.48876 28.1589 2.87478 25.575C2.65898 24.6788 2.55 23.7602 2.55014 22.8384C2.55014 22.4293 2.55014 22.025 2.6113 21.6253C2.86934 19.1742 3.88303 16.8639 5.5122 15.0137C7.14137 13.1635 9.30553 11.8649 11.7054 11.2975C14.1053 10.73 16.6222 10.9218 18.9083 11.8462C21.1944 12.7707 23.1365 14.3821 24.4662 16.4577L24.4945 16.5047C24.716 16.8541 24.9186 17.2151 25.1014 17.5862L25.9248 19.0532L28.809 24.1926L29.8488 26.0452L32.3848 30.2065C33.6794 32.39 35.5272 34.1937 37.7418 35.4359C39.9564 36.6781 42.4595 37.3149 44.9989 37.282C47.5382 37.2491 50.024 36.5477 52.2057 35.2485C54.3873 33.9494 56.1876 32.0983 57.4251 29.8821H54.3951C53.2935 31.3824 51.854 32.6026 50.1931 33.444C48.5322 34.2853 46.6965 34.7242 44.8344 34.7252Z" fill="#4D817D"/>
<path d="M79.9437 22.1238V37.1704H77.163V22.1238L63.8242 0.574219H66.9672L78.5745 19.453L90.149 0.574219H93.2872L79.9437 22.1238Z" fill="#B3C5C2"/>
<path d="M115.273 27.8744H96.9238L93.3668 37.1845H90.4355L104.645 0.574219H107.571L121.752 37.1845H118.826L115.273 27.8744ZM114.281 25.26L106.108 3.97381L97.9448 25.26H114.281Z" fill="#B3C5C2"/>
<path d="M154.462 0.574219V37.1845H152.001L130.386 5.68066V37.1845H127.615V0.574219H130.024L151.667 32.078V0.574219H154.462Z" fill="#B3C5C2"/>
<path d="M198.938 21.5448C198.938 30.3847 192.191 37.7575 181.252 37.7575C169.894 37.7575 161.994 29.3409 161.994 18.8788C161.994 8.41669 169.894 0 181.04 0C187.844 0 193.744 3.55476 196.793 8.83987L194.318 10.3022C191.914 5.6989 186.79 2.66607 181.026 2.66607C171.4 2.66607 164.751 9.88373 164.751 18.8788C164.751 27.8738 171.4 35.0915 181.219 35.0915C190.116 35.0915 195.503 29.5995 196.082 22.7486H180.556V20.1342H198.905L198.938 21.5448Z" fill="#B3C5C2"/>
<path d="M1.47308 47.5234V54.8869H0.941406V47.5234H1.47308Z" fill="#4D817D"/>
<path d="M16.9104 47.5234V54.8869H16.4399L12.0924 48.5532V54.8869H11.5137V47.5234H11.9842L16.3411 53.8524V47.5234H16.9104Z" fill="#4D817D"/>
<path d="M27.5064 48.0501V50.9936H30.9081V51.5202H27.5064V54.8869H26.9512V47.5234H31.054V48.0501H27.5064Z" fill="#4D817D"/>
<path d="M41.1646 47.5234V54.8869H40.6094V47.5234H41.1646Z" fill="#4D817D"/>
<path d="M56.6026 47.5234V54.8869H56.1321L51.7564 48.5532V54.8869H51.2012V47.5234H51.6717L56.0286 53.8524V47.5234H56.6026Z" fill="#4D817D"/>
<path d="M67.1978 47.5234V54.8869H66.6426V47.5234H67.1978Z" fill="#4D817D"/>
<path d="M83.9006 54.8869H83.3407V48.3416L80.6165 52.865H80.5224L77.7982 48.3416V54.8869H77.2383V47.5234H77.9346L80.5647 51.8775L83.1949 47.5234H83.9006V54.8869Z" fill="#4D817D"/>
<path d="M98.1799 54.3602V54.8869H93.9453V47.5234H98.1375V48.0501H94.5052V50.9089H97.8646V51.4356H94.4958V54.3602H98.1799Z" fill="#4D817D"/>
<path d="M113.152 47.5234V54.8869H112.658L108.311 48.5532V54.8869H107.746V47.5234H108.217L112.573 53.8524V47.5234H113.152Z" fill="#4D817D"/>
<path d="M127.719 48.0501H125.399V54.8869H124.834V48.0501H122.52V47.5234H127.719V48.0501Z" fill="#4D817D"/>
<path d="M147.32 47.5234H147.932L150.36 54.158L152.802 47.5234H153.385L150.637 54.8869H150.092L147.32 47.5234Z" fill="#4D817D"/>
<path d="M161.938 51.2063C161.937 50.4545 162.159 49.7193 162.576 49.0938C162.994 48.4683 163.587 47.9806 164.282 47.6924C164.977 47.4043 165.742 47.3287 166.48 47.4751C167.218 47.6216 167.896 47.9835 168.428 48.5151C168.959 49.0467 169.322 49.7241 169.468 50.4616C169.615 51.199 169.539 51.9633 169.251 52.6577C168.962 53.3521 168.474 53.9454 167.848 54.3625C167.223 54.7797 166.487 55.0018 165.735 55.0009C165.235 55.0053 164.739 54.9101 164.276 54.721C163.814 54.5318 163.393 54.2525 163.04 53.8993C162.687 53.546 162.407 53.126 162.218 52.6636C162.028 52.2012 161.933 51.7058 161.938 51.2063ZM168.995 51.2063C168.992 50.5664 168.798 49.9419 168.44 49.4116C168.081 48.8813 167.574 48.469 166.981 48.2266C166.388 47.9843 165.737 47.9228 165.11 48.05C164.482 48.1771 163.906 48.4871 163.455 48.9409C163.003 49.3948 162.696 49.972 162.573 50.6C162.449 51.2279 162.514 51.8783 162.76 52.4692C163.006 53.0601 163.422 53.565 163.954 53.9201C164.487 54.2753 165.113 54.4648 165.753 54.4648C166.18 54.4642 166.602 54.3793 166.995 54.2148C167.388 54.0504 167.745 53.8098 168.044 53.5068C168.344 53.2038 168.581 52.8446 168.741 52.4497C168.901 52.0549 168.981 51.6323 168.976 51.2063H168.995Z" fill="#4D817D"/>
<path d="M178.994 52.423V47.5234H179.549V52.423C179.549 53.622 180.297 54.4637 181.69 54.4637C183.083 54.4637 183.836 53.622 183.836 52.423V47.5234H184.391V52.423C184.391 53.9794 183.309 54.9997 181.69 54.9997C180.072 54.9997 178.994 53.9794 178.994 52.423Z" fill="#4D817D"/>
<path d="M193.885 53.2657L194.355 52.9836C194.609 53.8676 195.357 54.4647 196.567 54.4647C197.776 54.4647 198.42 53.8346 198.42 52.993C198.42 52.1513 197.639 51.7704 196.515 51.4131C195.282 51.0134 194.162 50.6701 194.162 49.3865C194.162 48.1734 195.141 47.4069 196.397 47.4069C196.9 47.3952 197.395 47.537 197.815 47.8134C198.235 48.0898 198.561 48.4876 198.75 48.9539L198.279 49.2172C198.14 48.8334 197.883 48.5034 197.545 48.2745C197.207 48.0456 196.805 47.9295 196.397 47.943C195.376 47.943 194.732 48.5448 194.732 49.3536C194.732 50.1623 195.48 50.5103 196.534 50.8582C197.837 51.2908 198.976 51.6999 198.976 52.9742C198.976 54.2484 198.035 54.9913 196.553 54.9913C195.197 55.0149 194.219 54.3095 193.885 53.2657Z" fill="#4D817D"/>
</g>
<defs>
<clipPath id="clip0_110_3962">
<rect width="199" height="55" fill="white"/>
</clipPath>
</defs>
</svg>
